# This file uses centimeters as units for non-parametric coordinates.

mtllib window.mtl
g default
v -3.498951 -0.003909 0.500000
v 3.480744 -0.003909 0.466661
v 3.480744 -0.003909 0.500000
v -3.498951 2.732404 0.500000
v 3.480744 2.732404 0.500000
v -3.498950 2.732404 0.466661
v -0.915103 1.719435 0.500000
v -0.915103 1.104845 0.500000
v -2.608469 1.104845 0.500000
v -2.608469 2.104845 0.500000
v -1.898195 2.104845 0.500000
v -0.915103 2.104845 0.500000
v -2.608469 2.104845 0.466661
v -0.915103 2.104845 0.466661
v 3.480744 2.732404 0.466661
v -2.608469 1.104845 0.466661
v -3.498950 -0.003909 0.466661
v -0.915103 1.104845 0.466661
v 2.616679 1.104845 0.466661
v 0.923314 1.104845 0.466661
v 0.923314 1.104845 0.500000
v 2.616679 1.104845 0.500000
v 2.616679 2.104845 0.500000
v 2.616679 2.104845 0.466661
v 0.923314 1.729792 0.466661
v 0.923314 2.104845 0.466661
v 0.923314 2.104845 0.500000
v 1.879988 2.104845 0.466661
vt 0.002193 0.958836
vt 0.998209 0.955463
vt 0.998209 0.958836
vt 0.002193 0.470294
vt 0.998209 0.470294
vt 0.002193 0.473667
vt 0.002193 0.003553
vt 0.998209 0.003553
vt 0.370913 0.287684
vt 0.370913 0.186355
vt 0.129266 0.186355
vt 0.129266 0.351228
vt 0.230624 0.351228
vt 0.002193 0.454695
vt 0.625000 0.316720
vt 0.479861 0.316720
vt 0.375000 0.316720
vt 0.375000 0.325055
vt 0.625000 0.325055
vt 0.002193 0.489099
vt 0.998209 0.489099
vt 0.370913 0.592566
vt 0.129266 0.592566
vt 0.129266 0.757438
vt 0.002193 0.940241
vt 0.691720 0.000000
vt 0.691720 0.153647
vt 0.691720 0.250000
vt 0.700055 0.250000
vt 0.700055 0.000000
vt 0.998209 0.473667
vt 0.998209 0.974268
vt 0.998209 0.977643
vt 0.775522 0.974268
vt 0.775522 0.977643
vt 0.625000 0.924945
vt 0.375000 0.924945
vt 0.375000 0.933280
vt 0.625000 0.933280
vt 0.691720 0.000000
vt 0.691720 0.250000
vt 0.700055 0.250000
vt 0.700055 0.000000
vt 0.299945 0.000000
vt 0.299945 0.156237
vt 0.299945 0.250000
vt 0.308280 0.250000
vt 0.308280 0.000000
vt 0.625000 0.316720
vt 0.375000 0.316720
vt 0.375000 0.325055
vt 0.516239 0.325055
vt 0.625000 0.325055
vt 0.769778 0.592566
vt 0.633259 0.592566
vt 0.633258 0.654402
vt 0.370913 0.757438
vt 0.874905 0.351228
vt 0.874905 0.186355
vt 0.633259 0.186355
vt 0.998209 0.454695
vt 0.370913 0.351228
vt 0.633259 0.351228
vt 0.633259 0.757438
vt 0.874905 0.757438
vt 0.874905 0.592566
vt 0.998209 0.940241
vt 0.625000 0.924945
vt 0.375000 0.924945
vt 0.375000 0.933280
vt 0.625000 0.933280
vt 0.002193 0.955463
vt 0.299945 0.000000
vt 0.299945 0.250000
vt 0.308280 0.250000
vt 0.308280 0.000000
vt 0.775522 0.993074
vt 0.998209 0.996447
vt 0.775522 0.996447
vt 0.998209 0.993074
vn 0.000000 -1.000000 0.000001
vn 0.000000 -1.000000 0.000001
vn 0.000000 -1.000000 0.000001
vn 0.000000 1.000000 0.000005
vn 0.000000 1.000000 0.000005
vn 0.000000 1.000000 0.000005
vn 0.000000 0.000000 1.000000
vn 0.000000 0.000000 1.000000
vn 0.000000 0.000000 1.000000
vn 0.000000 0.000000 1.000000
vn 0.000000 0.000000 1.000000
vn 0.000000 0.000000 1.000000
vn 0.000000 0.000000 1.000000
vn 0.000000 0.000000 1.000000
vn 0.000000 -1.000000 -0.000004
vn 0.000000 -1.000000 -0.000004
vn 0.000000 -1.000000 -0.000004
vn 0.000000 -1.000000 -0.000004
vn 0.000000 -1.000000 -0.000004
vn 0.000000 0.000000 -1.000000
vn 0.000000 0.000000 -1.000000
vn 0.000000 0.000000 -1.000000
vn 0.000000 0.000000 -1.000000
vn 0.000000 0.000000 -1.000000
vn 0.000000 0.000000 -1.000000
vn -1.000000 0.000000 0.000000
vn -1.000000 0.000000 0.000000
vn -1.000000 0.000000 0.000000
vn -1.000000 0.000000 0.000000
vn -1.000000 0.000000 0.000000
vn 0.000000 1.000000 0.000005
vn 0.000000 1.000000 0.000005
vn 0.000000 1.000000 0.000005
vn 1.000000 0.000000 0.000010
vn 1.000000 0.000000 0.000010
vn 1.000000 0.000000 0.000010
vn 1.000000 0.000000 0.000010
vn 1.000000 0.000000 0.000010
vn 1.000000 0.000000 0.000010
vn 0.000000 1.000000 0.000000
vn 0.000000 1.000000 0.000000
vn 0.000000 1.000000 0.000000
vn 0.000000 1.000000 0.000000
vn -1.000000 0.000000 0.000000
vn -1.000000 0.000000 0.000000
vn -1.000000 0.000000 0.000000
vn -1.000000 0.000000 0.000000
vn 1.000000 0.000000 0.000000
vn 1.000000 0.000000 0.000000
vn 1.000000 0.000000 0.000000
vn 1.000000 0.000000 0.000000
vn 1.000000 0.000000 0.000000
vn 0.000000 -1.000000 0.000002
vn 0.000000 -1.000000 0.000002
vn 0.000000 -1.000000 0.000002
vn 0.000000 -1.000000 0.000002
vn 0.000000 -1.000000 0.000002
vn 0.000000 0.000000 -1.000000
vn 0.000000 0.000000 -1.000000
vn 0.000000 0.000000 -1.000000
vn 0.000000 0.000000 -1.000000
vn 0.000000 0.000000 1.000000
vn 0.000000 0.000000 1.000000
vn 0.000000 0.000000 1.000000
vn 0.000000 0.000000 1.000000
vn 0.000000 0.000000 1.000000
vn 0.000000 0.000000 1.000000
vn 0.000000 0.000000 -1.000000
vn 0.000000 0.000000 -1.000000
vn 0.000000 0.000000 -1.000000
vn 0.000000 0.000000 -1.000000
vn 0.000000 1.000000 0.000000
vn 0.000000 1.000000 0.000000
vn 0.000000 1.000000 0.000000
vn 0.000000 1.000000 0.000000
vn 0.000000 -1.000000 0.000001
vn 0.000000 -1.000000 0.000001
vn 0.000000 -1.000000 0.000001
vn 1.000000 0.000000 0.000000
vn 1.000000 0.000000 0.000000
vn 1.000000 0.000000 0.000000
vn 1.000000 0.000000 0.000000
vn -1.000000 0.000000 -0.000010
vn -1.000000 0.000000 -0.000010
vn -1.000000 0.000000 -0.000010
vn -1.000000 0.000000 -0.000010
vn -1.000000 0.000000 -0.000010
vn -1.000000 0.000000 -0.000010
s off
g pCube4
usemtl thinwall_initialShadingGroup
f 1/1/1 2/2/2 3/3/3
f 4/4/4 5/5/5 6/6/6
s 1
f 1/7/7 3/8/8 7/9/9 8/10/10 9/11/11 10/12/12 11/13/13 4/14/14
s off
usemtl initialShadingGroup
f 12/15/15 11/16/16 10/17/17 13/18/18 14/19/19
s 2
usemtl thinwall_initialShadingGroup
f 6/20/20 15/21/21 14/22/22 13/23/23 16/24/24 17/25/25
s off
usemtl initialShadingGroup
f 8/26/26 7/27/27 12/28/28 14/29/29 18/30/30
usemtl thinwall_initialShadingGroup
f 6/6/31 5/5/32 15/31/33
f 3/32/34 2/33/35 5/34/36
f 5/34/37 2/33/38 15/35/39
usemtl initialShadingGroup
f 19/36/40 20/37/41 21/38/42 22/39/43
f 22/40/44 23/41/45 24/42/46 19/43/47
f 20/44/48 25/45/49 26/46/50 27/47/51 21/48/52
f 23/49/53 27/50/54 26/51/55 28/52/56 24/53/57
s 2
usemtl thinwall_initialShadingGroup
f 15/21/21 28/54/58 26/55/59 25/56/60 17/25/25 16/24/24 18/57/61 14/22/22
s 1
f 23/58/62 22/59/63 21/60/64 7/9/9 3/8/8 5/61/65
f 4/14/14 11/13/13 12/62/66 7/9/9 21/60/64 27/63/67 23/58/62 5/61/65
s 2
f 17/25/25 25/56/60 20/64/68 19/65/69 24/66/70 28/54/58 15/21/21 2/67/71
s off
usemtl initialShadingGroup
f 18/68/72 16/69/73 9/70/74 8/71/75
usemtl thinwall_initialShadingGroup
f 17/72/76 2/2/77 1/1/78
usemtl initialShadingGroup
f 16/73/79 13/74/80 10/75/81 9/76/82
usemtl thinwall_initialShadingGroup
f 6/77/83 1/78/84 4/79/85
f 17/80/86 1/78/87 6/77/88
